<?xml version="1.0" encoding="UTF-8"?>
<svg width="1200" height="100" viewBox="0 0 1200 100" xmlns="http://www.w3.org/2000/svg">
  <style>
    .skyline {
      fill: #333333;
    }
    @media (prefers-color-scheme: dark) {
      .skyline {
        fill: #4a4a4a;
      }
    }
  </style>
  
  <!-- Dubai Skyline Silhouette -->
  <g class="skyline">
    <!-- Burj Khalifa -->
    <polygon points="125,100 125,15 130,5 135,15 135,100" />
    <rect x="115" y="45" width="30" height="55" />
    
    <!-- Emirates Towers -->
    <polygon points="165,100 165,30 175,20 185,30 185,100" />
    <polygon points="200,100 200,35 208,25 216,35 216,100" />
    
    <!-- Burj Al Arab -->
    <path d="M255,100 L255,40 C255,30 275,30 275,40 L275,100" />
    <path d="M245,65 L285,65" stroke="#333333" stroke-width="5" />
    <path d="M265,35 L265,20" stroke="#333333" stroke-width="10" stroke-linecap="round" />
    
    <!-- JBR Buildings -->
    <rect x="300" y="50" width="15" height="50" />
    <rect x="320" y="45" width="15" height="55" />
    <rect x="340" y="40" width="15" height="60" />
    <rect x="360" y="35" width="15" height="65" />
    <rect x="380" y="40" width="15" height="60" />
    
    <!-- Dubai Frame -->
    <rect x="420" y="40" width="30" height="60" stroke="#333333" stroke-width="10" fill="none" />
    
    <!-- Palm Tower -->
    <rect x="470" y="35" width="20" height="65" />
    <polygon points="470,35 480,20 490,35" />
    
    <!-- Museum of the Future -->
    <path d="M520,100 L520,50 C520,35 550,35 550,50 L550,100" fill="#333333" />
    <ellipse cx="535" cy="45" rx="15" ry="5" />
    
    <!-- Cayan Tower (Twisted) -->
    <path d="M580,100 L585,30 L595,30 L600,100" />
    
    <!-- Numerous Skyscrapers -->
    <rect x="620" y="45" width="10" height="55" />
    <rect x="635" y="35" width="10" height="65" />
    <rect x="650" y="40" width="10" height="60" />
    <rect x="665" y="30" width="10" height="70" />
    <rect x="680" y="50" width="10" height="50" />
    
    <!-- Financial District -->
    <rect x="700" y="45" width="8" height="55" />
    <rect x="713" y="40" width="8" height="60" />
    <rect x="726" y="35" width="8" height="65" />
    <rect x="739" y="50" width="8" height="50" />
    <rect x="752" y="45" width="8" height="55" />
    <rect x="765" y="30" width="8" height="70" />
    <rect x="778" y="40" width="8" height="60" />
    
    <!-- DIFC Gate Building -->
    <rect x="800" y="45" width="30" height="55" />
    <rect x="810" y="25" width="10" height="20" />
    
    <!-- Marina Towers -->
    <rect x="840" y="35" width="10" height="65" />
    <rect x="855" y="40" width="10" height="60" />
    <rect x="870" y="30" width="10" height="70" />
    <rect x="885" y="45" width="10" height="55" />
    
    <!-- Almas Tower -->
    <polygon points="910,100 910,25 920,15 930,25 930,100" />
    
    <!-- Business Bay -->
    <rect x="950" y="50" width="12" height="50" />
    <rect x="967" y="45" width="12" height="55" />
    <rect x="984" y="40" width="12" height="60" />
    <rect x="1001" y="35" width="12" height="65" />
    
    <!-- More Mixed Buildings -->
    <rect x="1030" y="60" width="10" height="40" />
    <rect x="1045" y="50" width="10" height="50" />
    <rect x="1060" y="40" width="10" height="60" />
    <rect x="1075" y="45" width="10" height="55" />
    <rect x="1090" y="55" width="10" height="45" />
    <rect x="1105" y="35" width="10" height="65" />
    <rect x="1120" y="50" width="10" height="50" />
    <rect x="1135" y="45" width="10" height="55" />
    <rect x="1150" y="55" width="10" height="45" />
    <rect x="1165" y="40" width="10" height="60" />
    <rect x="1180" y="50" width="10" height="50" />
  </g>
</svg>
